<svg xmlns="http://www.w3.org/2000/svg" xmlns:xlink="http://www.w3.org/1999/xlink" width="560" height="760" version="1.1"><defs id="edraw-defs"><marker id="edraw-def-0-arrow" markerWidth="12" markerHeight="24" preserveAspectRatio="none" viewBox="-10 -10 20 20" refX="-5" refY="0" orient="auto" stroke="none" fill="#101010"><path d="M10,-7 10,7 -4,0Z" /></marker></defs><rect x="0" y="0" width="560" height="760" id="edraw-background" stroke="none" fill="#fff" /><g id="edraw-body"><rect fill="#f8f8f8" stroke="#101010" stroke-width="2" height="440" width="400" y="300" x="140" /><rect x="20" fill="#f8f8f8" stroke="#101010" stroke-width="2" height="260" width="400" y="20" /><path fill="none" stroke="#101010" stroke-width="2" d="M140,320L190,320L210,320L230,320L250,320L270,320L290,320L310,320L330,320L350,320L410,320L540,320" /><text y="315" fill="#101010" font-size="16" font-family="sans-serif" text-anchor="middle" x="340">GenRedo</text><path fill="none" stroke="#101010" stroke-width="2" d="M20,40L70,40L90,40L110,40L130,40L150,40L170,40L190,40L210,40L230,40L420,40" /><path fill="none" stroke="#101010" stroke-width="2" d="M20,60L70,60L90,60L110,60L130,60L150,60L170,60L190,60L210,60L230,60L420,60" /><text y="35" fill="#101010" font-size="16" font-family="sans-serif" text-anchor="middle" x="220">MainredoClass</text><text x="150" y="335" fill="#101010" font-size="16" font-family="sans-serif" text-anchor="start">name: string</text><path fill="none" stroke="#101010" stroke-width="2" d="M140,400L190,400L210,400L230,400L250,400L270,400L290,400L310,400L330,400L350,400L540,400" /><text x="30" fill="#101010" font-size="16" font-family="sans-serif" text-anchor="start" y="80"><tspan class="edraw-text-line" x="30">+linear transform(int, DF, dict, list): DF, dict\\</tspan><tspan class="edraw-text-line" x="30" dy="1em">+&lt;algorithm> transform(DF, dict, list): DF, dict\\</tspan><tspan class="edraw-text-line" x="30" dy="1em">+did &lt;algorithm> transform(dict): bool\\</tspan><tspan class="edraw-text-line" x="30" dy="1em">+norm w &lt;algorithm>(DF, dict, list): DF, dict\\</tspan><tspan class="edraw-text-line" x="30" dy="1em">+did norm w &lt;algorithm>(dict): bool\\</tspan><tspan class="edraw-text-line" x="30" dy="1em">+fill w &lt;algorithm>(DF, dict, int, int, str, list, list): dict\\</tspan><tspan class="edraw-text-line" x="30" dy="1em">+did fill w &lt;algoritm>(dict): bool\\</tspan><tspan class="edraw-text-line" x="30" dy="1em">+best fit to fill(dict, str, str): dict, list\\</tspan><tspan class="edraw-text-line" x="30" dy="1em">+station auto init(dict, str, list): dict, list\\</tspan><tspan class="edraw-text-line" x="30" dy="1em">+station auto save(dict, str, list): dict\\</tspan><tspan class="edraw-text-line" x="30" dy="1em">+drop features(dict, list, list): dict, list</tspan></text><text fill="#101010" text-anchor="start" font-size="16" font-family="sans-serif" y="420" x="150"><tspan class="edraw-text-line" x="150">-wmape(series, series): float\\</tspan><tspan class="edraw-text-line" x="150" dy="1em">-metricf(series, dict): dict \\</tspan><tspan class="edraw-text-line" x="150" dy="1em">-metricvf(dict): list\\</tspan><tspan class="edraw-text-line" x="150" dy="1em">-metricdff(list): DF \\</tspan><tspan class="edraw-text-line" x="150" dy="1em">-metricarf(DF, list): list\\</tspan><tspan class="edraw-text-line" x="150" dy="1em">-metricamaper2f(series, series, dict): dict\\</tspan><tspan class="edraw-text-line" x="150" dy="1em">-nfindsf(DF, dict, str): DF\\</tspan><tspan class="edraw-text-line" x="150" dy="1em">+linear transform(int, DF, dict, list): DF, dict\\</tspan><tspan class="edraw-text-line" x="150" dy="1em">+&lt;algorithm> transform(DF, dict, list): DF, dict\\</tspan><tspan class="edraw-text-line" x="150" dy="1em">+did &lt;algorithm> transform(dict): bool\\</tspan><tspan class="edraw-text-line" x="150" dy="1em">+norm w &lt;algorithm>(DF, dict, list): DF, dict\\</tspan><tspan class="edraw-text-line" x="150" dy="1em">+did norm w &lt;algorithm>(dict): bool\\</tspan><tspan class="edraw-text-line" x="150" dy="1em">+fill w &lt;algorithm>(DF, dict, int, int, str, list, list): dict\\</tspan><tspan class="edraw-text-line" x="150" dy="1em">+did fill w &lt;algoritm>(dict): bool\\</tspan><tspan class="edraw-text-line" x="150" dy="1em">+best fit to fill(dict, str, str): dict, list\\</tspan><tspan class="edraw-text-line" x="150" dy="1em">+station auto init(dict, str, list): dict, list\\</tspan><tspan class="edraw-text-line" x="150" dy="1em">+station auto save(dict, str, list): dict\\</tspan><tspan class="edraw-text-line" x="150" dy="1em">+drop features(dict, list, list): dict, list</tspan></text><path marker-start="url(#edraw-def-0-arrow)" fill="none" stroke="#101010" stroke-width="2" d="M100,280L100,300L100,320L100,340L100,360L100,380L100,400L100,420L100,440L100,460L120,460L140,460" /><text y="355" fill="#101010" font-size="16" font-family="sans-serif" text-anchor="start" x="150">prognl: list</text><text y="375" fill="#101010" font-size="16" font-family="sans-serif" text-anchor="start" x="150">methal: dict</text></g></svg>