<svg xmlns="http://www.w3.org/2000/svg" xmlns:xlink="http://www.w3.org/1999/xlink" width="560" height="680" version="1.1"><defs id="edraw-defs"><marker id="edraw-def-0-arrow" markerWidth="6" markerHeight="6" preserveAspectRatio="none" viewBox="-10 -10 20 20" refX="0" refY="0" orient="auto" stroke="none" fill="#101010"><path d="M-10,-7 -10,7 4,0Z" /></marker><marker id="edraw-def-1-arrow" markerWidth="6" markerHeight="6" preserveAspectRatio="none" viewBox="-10 -10 20 20" refX="0" refY="0" orient="auto" stroke="none" fill="#aaa"><path d="M10,-7 10,7 -4,0Z" /></marker><marker id="edraw-def-2-arrow" markerWidth="6" markerHeight="6" preserveAspectRatio="none" viewBox="-10 -10 20 20" refX="0" refY="0" orient="auto" stroke="none" fill="#aaa"><path d="M-10,-7 -10,7 4,0Z" /></marker></defs><rect x="0" y="0" width="560" height="680" id="edraw-background" stroke="none" fill="#fff" /><g id="edraw-body"><rect fill="#f8f8f8" stroke="#101010" stroke-width="2" height="40" width="100" y="20" x="20" /><text fill="#101010" font-size="16" font-family="sans-serif" text-anchor="middle" y="46.4" x="70">main.py</text><path stroke-dasharray="2" stroke-width="1" fill="none" stroke="#101010" d="M120,40L140,40L160,40L180,40L200,40" /><g stroke-width="1" stroke="#808080" fill="#f0f0f0"><path d="M200,20L200,60L305,60L320,46.66666666666667L320,20L200,20Z" /><path stroke-linejoin="round" fill-opacity="0.125" fill="#000000" d="M305,46.66666666666667L305,60L320,46.66666666666667L305,46.66666666666667Z" /></g><text fill="#101010" font-size="16" font-family="sans-serif" text-anchor="middle" y="46.4" x="260">Bottle</text><rect fill="#f8f8f8" stroke="#101010" stroke-width="2" height="40" width="120" y="80" x="100" /><text fill="#101010" font-size="16" font-family="sans-serif" text-anchor="middle" y="100" x="160">DataLoader</text><rect fill="#f8f8f8" stroke="#101010" stroke-width="2" height="40" width="120" y="320" x="100" /><text fill="#101010" font-size="16" font-family="sans-serif" text-anchor="middle" y="346.4" x="160">Route</text><path fill="none" stroke="#101010" stroke-width="2" d="M40,60L40,80L40,100L60,100L80,100L100,100" /><path fill="none" stroke="#101010" stroke-width="2" d="M40,100L40,120L40,140L40,160L40,200L40,340L100,340" /><text fill="#101010" font-size="16" font-family="sans-serif" text-anchor="middle" y="140" x="70">get</text><text y="310" x="70" fill="#101010" font-size="16" font-family="sans-serif" text-anchor="middle">result</text><rect fill="#f8f8f8" stroke="#101010" stroke-width="2" height="40" width="140" y="140" x="140" /><rect fill="#f8f8f8" stroke="#101010" stroke-width="2" height="40" width="140" y="200" x="140" /><rect fill="#f8f8f8" stroke="#101010" stroke-width="2" height="40" width="140" y="260" x="140" /><text fill="#101010" font-size="16" font-family="sans-serif" text-anchor="middle" y="160" x="210">MadridLoader</text><text fill="#101010" font-size="16" font-family="sans-serif" text-anchor="middle" y="220" x="210">IndiaDataLoader</text><text fill="#101010" font-size="16" font-family="sans-serif" text-anchor="middle" y="280" x="210">AqpLoader</text><path fill="none" stroke="#101010" stroke-width="2" d="M120,120L120,140L120,160L120,180L120,200L120,220L120,240L120,260L120,280L140,280" /><path fill="none" stroke="#101010" stroke-width="2" d="M120,220L140,220" /><path fill="none" stroke="#101010" stroke-width="2" d="M120,160L140,160" /><g stroke-width="1" stroke="#808080" fill="#f0f0f0"><path d="M300,80L300,120L422.5,120L440,106.66666666666666L440,80L300,80Z" /><path stroke-linejoin="round" fill-opacity="0.125" fill="#000000" d="M422.5,106.66666666666666L422.5,120L440,106.66666666666666L422.5,106.66666666666666Z" /></g><text fill="#101010" font-size="16" font-family="sans-serif" text-anchor="middle" y="100" x="360">BaseLoader</text><path stroke-dasharray="2" stroke-width="1" fill="none" stroke="#101010" d="M220,100L240,100L260,100L280,100L300,100" /><path d="M100,220" fill="none" stroke="#101010" stroke-width="2" /><path stroke-width="2" marker-start="url(#edraw-def-1-arrow)" marker-end="url(#edraw-def-2-arrow)" d="M100,120C60,220 100,320 100,320" fill="none" stroke="#aaa" /><path d="" fill="none" stroke="#101010" stroke-width="2" /><path d="M360,180" fill="none" stroke="#101010" stroke-width="2" /><rect fill="#f8f8f8" stroke="#101010" stroke-width="2" height="40" width="140" y="380" x="140" /><rect fill="#f8f8f8" stroke="#101010" stroke-width="2" height="40" width="140" y="440" x="140" /><text fill="#101010" font-size="16" font-family="sans-serif" text-anchor="middle" y="400" x="210">Metadata</text><text fill="#101010" font-size="16" font-family="sans-serif" text-anchor="middle" y="460" x="210">Recommendation</text><g stroke-width="1" stroke="#808080" fill="#f0f0f0"><path d="M360,360L360,420L500,420L520,400L520,360L360,360Z" /><path stroke-linejoin="round" fill-opacity="0.125" fill="#000000" d="M500,400L500,420L520,400L500,400Z" /></g><g stroke-width="1" stroke="#808080" fill="#f0f0f0"><path d="M360,440L360,500L500,500L520,480L520,440L360,440Z" /><path stroke-linejoin="round" fill-opacity="0.125" fill="#000000" d="M500,480L500,500L520,480L500,480Z" /></g><text fill="#101010" font-size="16" font-family="sans-serif" text-anchor="middle" y="380" x="440">DataSet</text><text fill="#101010" font-size="16" font-family="sans-serif" text-anchor="middle" y="400" x="440">MET Station</text><text fill="#101010" font-size="16" font-family="sans-serif" text-anchor="middle" y="460" x="440">MET Station</text><text fill="#101010" font-size="16" font-family="sans-serif" text-anchor="middle" y="480" x="440">Macrotasks (Op)</text><rect fill="#f8f8f8" stroke="#101010" stroke-width="2" height="40" width="140" y="500" x="140" /><rect fill="#f8f8f8" stroke="#101010" stroke-width="2" height="40" width="140" y="560" x="140" /><text fill="#101010" font-size="16" font-family="sans-serif" text-anchor="middle" y="520" x="210">Data (Station)</text><text fill="#101010" font-size="16" font-family="sans-serif" text-anchor="middle" y="580" x="210">Operations</text><g stroke-width="1" stroke="#808080" fill="#f0f0f0"><path d="M360,520L360,660L500,660L520,613.3333333333333L520,520L360,520Z" /><path stroke-linejoin="round" fill-opacity="0.125" fill="#000000" d="M500,613.3333333333333L500,660L520,613.3333333333333L500,613.3333333333333Z" /></g><text fill="#101010" font-size="16" font-family="sans-serif" text-anchor="middle" y="540" x="440">Normalization</text><text fill="#101010" font-size="16" font-family="sans-serif" text-anchor="middle" y="560" x="440">Cleaning</text><text fill="#101010" font-size="16" font-family="sans-serif" text-anchor="middle" y="580" x="440">Transformation</text><text fill="#101010" font-size="16" font-family="sans-serif" text-anchor="middle" y="600" x="440">Reduction</text><text fill="#101010" font-size="16" font-family="sans-serif" text-anchor="middle" y="620" x="440">Behavior (Ss, Cy)</text><text fill="#101010" font-size="16" font-family="sans-serif" text-anchor="middle" y="640" x="440">Raw</text><path fill="none" stroke="#101010" stroke-width="2" d="M120,360L120,380L120,400L140,400" /><path fill="none" stroke="#101010" stroke-width="2" d="M120,400L120,420L120,440L120,460L140,460" /><path fill="none" stroke="#101010" stroke-width="2" d="M120,460L120,480L120,500L120,520L140,520" /><path fill="none" stroke="#101010" stroke-width="2" d="M120,520L120,540L120,560L120,580L140,580" /><path stroke-dasharray="2" stroke-width="1" fill="none" stroke="#101010" d="M280,400L300,400L320,400L340,400L360,400" /><path stroke-dasharray="2" stroke-width="1" fill="none" stroke="#101010" d="M280,460L300,460L320,460L340,460L360,460" /><path stroke-dasharray="2" stroke-width="1" fill="none" stroke="#101010" d="M280,580L320,580L360,580" /><path stroke-dasharray="4" marker-end="url(#edraw-def-0-arrow)" d="M280,480C300,480 300,520 300,520C300,520 300,560 280,560" fill="none" stroke="#101010" stroke-width="2" /><text fill="#101010" font-size="16" font-family="sans-serif" text-anchor="middle" y="520" x="320">Op</text></g></svg>