<svg xmlns="http://www.w3.org/2000/svg" xmlns:xlink="http://www.w3.org/1999/xlink" width="560" height="660" version="1.1"><defs id="edraw-defs"><marker id="edraw-def-0-arrow" markerWidth="12" markerHeight="24" preserveAspectRatio="none" viewBox="-10 -10 20 20" refX="-5" refY="0" orient="auto" stroke="none" fill="#101010"><path d="M10,-7 10,7 -4,0Z" /></marker></defs><rect x="0" y="0" width="560" height="660" id="edraw-background" stroke="none" fill="#fff" /><g id="edraw-body"><rect fill="#f8f8f8" stroke="#101010" stroke-width="2" height="420" width="400" y="220" x="140" /><rect fill="#f8f8f8" stroke="#101010" stroke-width="2" height="180" width="400" y="20" x="20" /><path fill="none" stroke="#101010" stroke-width="2" d="M140,240L180,240L200,240L220,240L240,240L260,240L280,240L300,240L320,240L340,240L400,240L540,240" /><text y="235" fill="#101010" font-size="16" font-family="sans-serif" text-anchor="middle" x="330">GenLoader</text><path fill="none" stroke="#101010" stroke-width="2" d="M20,40L60,40L80,40L100,40L120,40L140,40L160,40L180,40L200,40L220,40L420,40" /><path fill="none" stroke="#101010" stroke-width="2" d="M20,80L60,80L80,80L100,80L120,80L140,80L160,80L180,80L200,80L220,80L420,80" /><text y="35" fill="#101010" font-size="16" font-family="sans-serif" text-anchor="middle" x="220">MainloaderClass</text><text x="160" y="255" fill="#101010" font-size="16" font-family="sans-serif" text-anchor="start"><tspan class="edraw-text-line" x="160">+smo: dict\\</tspan><tspan class="edraw-text-line" x="160" dy="1em">+data: DF\\</tspan><tspan class="edraw-text-line" x="160" dy="1em">+stations: list\\</tspan><tspan class="edraw-text-line" x="160" dy="1em">ds = data\\</tspan><tspan class="edraw-text-line" x="160" dy="1em">have nulls: boolean\\</tspan><tspan class="edraw-text-line" x="160" dy="1em">epsilon: float\\</tspan><tspan class="edraw-text-line" x="160" dy="1em">dpi: int\\</tspan><tspan class="edraw-text-line" x="160" dy="1em">minsample: int\\</tspan><tspan class="edraw-text-line" x="160" dy="1em">valdnsize: rational\\</tspan><tspan class="edraw-text-line" x="160" dy="1em">y dep: string\\</tspan><tspan class="edraw-text-line" x="160" dy="1em">x flr: string\\</tspan><tspan class="edraw-text-line" x="160" dy="1em">cols list: list\\</tspan><tspan class="edraw-text-line" x="160" dy="1em">catg list: list\\</tspan><tspan class="edraw-text-line" x="160" dy="1em">time list: list</tspan></text><path fill="none" stroke="#101010" stroke-width="2" d="M140,500L180,500L200,500L220,500L240,500L260,500L280,500L300,500L320,500L340,500L540,500" /><text x="30" fill="#101010" font-size="16" font-family="sans-serif" text-anchor="start" y="100"><tspan class="edraw-text-line" x="30">+get metadata(): list\\</tspan><tspan class="edraw-text-line" x="30" dy="1em">+get station metadata(str): dict\\</tspan><tspan class="edraw-text-line" x="30" dy="1em">+get station df(str, chr, bool): DF, DF\\</tspan><tspan class="edraw-text-line" x="30" dy="1em">+get data(str, bool, bool, chr, bool): string, DF, DF\\</tspan><tspan class="edraw-text-line" x="30" dy="1em">+get station raw df(str, chr, bool): DF, DF\\</tspan><tspan class="edraw-text-line" x="30" dy="1em">+get raw data(str, bool, bool, chr, bool): string, DF, DF</tspan></text><text fill="#101010" text-anchor="start" font-size="16" font-family="sans-serif" y="520" x="150"><tspan class="edraw-text-line" x="150">-read(): None\\</tspan><tspan class="edraw-text-line" x="150" dy="1em">+get metadata(): list\\</tspan><tspan class="edraw-text-line" x="150" dy="1em">+get station metadata(str): dict\\</tspan><tspan class="edraw-text-line" x="150" dy="1em">+get station df(str, chr, bool): DF, DF\\</tspan><tspan class="edraw-text-line" x="150" dy="1em">+get data(str, bool, bool, chr, bool): string, DF, DF\\</tspan><tspan class="edraw-text-line" x="150" dy="1em">+get station raw df(str, chr, bool): DF, DF\\</tspan><tspan class="edraw-text-line" x="150" dy="1em">+get raw data(str, bool, bool, chr, bool): string, DF, DF</tspan></text><text fill="#101010" font-size="16" font-family="sans-serif" text-anchor="start" y="60" x="40">path: string</text><path marker-start="url(#edraw-def-0-arrow)" fill="none" stroke="#101010" stroke-width="2" d="M100,200L100,220L100,240L100,260L100,280L100,300L100,320L100,340L100,360L100,380L120,380L140,380" /></g></svg>