<svg xmlns="http://www.w3.org/2000/svg" xmlns:xlink="http://www.w3.org/1999/xlink" width="540" height="620" version="1.1"><defs id="edraw-defs"><marker id="edraw-def-0-arrow" markerWidth="6" markerHeight="6" preserveAspectRatio="none" viewBox="-10 -10 20 20" refX="0" refY="0" orient="auto" stroke="none" fill="#101010"><path d="M-10,-7 -10,7 4,0Z" /></marker><marker id="edraw-def-1-arrow" markerWidth="6" markerHeight="6" preserveAspectRatio="none" viewBox="-10 -10 20 20" refX="0" refY="0" orient="auto" stroke="none" fill="#aaa"><path d="M10,-7 10,7 -4,0Z" /></marker><marker id="edraw-def-2-arrow" markerWidth="6" markerHeight="6" preserveAspectRatio="none" viewBox="-10 -10 20 20" refX="0" refY="0" orient="auto" stroke="none" fill="#aaa"><path d="M-10,-7 -10,7 4,0Z" /></marker><marker id="edraw-def-3-arrow" markerWidth="6" markerHeight="6" preserveAspectRatio="none" viewBox="-10 -10 20 20" refX="0" refY="0" orient="auto" stroke="none" fill="#999"><path d="M-10,-7 -10,7 4,0Z" /></marker><marker id="edraw-def-4-arrow" markerWidth="6" markerHeight="6" preserveAspectRatio="none" viewBox="-10 -10 20 20" refX="0" refY="0" orient="auto" stroke="none" fill="#999"><path d="M10,-7 10,7 -4,0Z" /></marker><marker id="edraw-def-5-arrow" markerWidth="8" markerHeight="14" preserveAspectRatio="none" viewBox="-10 -10 20 20" refX="4" refY="0" orient="auto" stroke="none" fill="#101010"><path d="M-10,-7 -10,7 4,0Z" /></marker></defs><rect x="0" y="0" width="540" height="620" id="edraw-background" stroke="none" fill="#fff" /><g id="edraw-body"><rect fill="#f8f8f8" stroke="#101010" stroke-width="2" height="40" width="100" y="20" x="20" /><text fill="#101010" font-size="16" font-family="sans-serif" text-anchor="middle" y="46.4" x="70">main.py</text><path stroke-dasharray="2" stroke-width="1" fill="none" stroke="#101010" d="M120,40L140,40L160,40L180,40L200,40" /><g stroke-width="1" stroke="#808080" fill="#f0f0f0"><path d="M200,20L200,60L305,60L320,46.66666666666667L320,20L200,20Z" /><path stroke-linejoin="round" fill-opacity="0.125" fill="#000000" d="M305,46.66666666666667L305,60L320,46.66666666666667L305,46.66666666666667Z" /></g><text fill="#101010" font-size="16" font-family="sans-serif" text-anchor="middle" y="46.4" x="260">Bottle</text><rect fill="#f8f8f8" stroke="#101010" stroke-width="2" height="40" width="120" y="80" x="100" /><text fill="#101010" font-size="16" font-family="sans-serif" text-anchor="middle" y="100" x="160">Mainloader</text><rect fill="#f8f8f8" stroke="#101010" stroke-width="2" height="40" width="120" y="200" x="100" /><text fill="#101010" font-size="16" font-family="sans-serif" text-anchor="middle" y="226.39999999999998" x="160">Route</text><path fill="none" stroke="#101010" stroke-width="2" d="M40,60L40,80L40,100L60,100L80,100L100,100" /><text fill="#101010" font-size="16" font-family="sans-serif" text-anchor="middle" y="120" x="70">get</text><text y="210" x="70" fill="#101010" font-size="16" font-family="sans-serif" text-anchor="middle">result</text><rect fill="#f8f8f8" stroke="#101010" stroke-width="2" height="40" width="140" y="140" x="140" /><text fill="#101010" font-size="16" font-family="sans-serif" text-anchor="middle" y="160" x="210">GenLoader</text><g stroke-width="1" stroke="#808080" fill="#f0f0f0"><path d="M320,60L320,180L477.5,180L500,140L500,60L320,60Z" /><path stroke-linejoin="round" fill-opacity="0.125" fill="#000000" d="M477.5,140L477.5,180L500,140L477.5,140Z" /></g><text fill="#101010" font-size="16" font-family="sans-serif" text-anchor="middle" y="80" x="420"><tspan class="edraw-text-line" x="420">Data loader Object\\</tspan><tspan class="edraw-text-line" x="420" dy="1em">handling multiple\\</tspan><tspan class="edraw-text-line" x="420" dy="1em">data sources. Its\\</tspan><tspan class="edraw-text-line" x="420" dy="1em">derived class code\\</tspan><tspan class="edraw-text-line" x="420" dy="1em">the methods.</tspan></text><path stroke-dasharray="2" stroke-width="1" fill="none" stroke="#101010" d="M220,100L240,100L260,100L280,100L320,100" /><path d="M100,220" fill="none" stroke="#101010" stroke-width="2" /><path stroke-width="2" marker-start="url(#edraw-def-1-arrow)" marker-end="url(#edraw-def-2-arrow)" d="M100,120C60,160 100,200 100,200" fill="none" stroke="#aaa" /><path d="" fill="none" stroke="#101010" stroke-width="2" /><path d="M360,180" fill="none" stroke="#101010" stroke-width="2" /><rect fill="#f8f8f8" stroke="#101010" stroke-width="2" height="40" width="140" y="260" x="140" /><rect fill="#f8f8f8" stroke="#101010" stroke-width="2" height="40" width="140" y="320" x="140" /><text fill="#101010" font-size="16" font-family="sans-serif" text-anchor="middle" y="280" x="210">Metadata</text><text fill="#101010" font-size="16" font-family="sans-serif" text-anchor="middle" y="340" x="210">Recommendation</text><g stroke-width="1" stroke="#808080" fill="#f0f0f0"><path d="M360,260L360,300L500,300L520,286.66666666666663L520,260L360,260Z" /><path stroke-linejoin="round" fill-opacity="0.125" fill="#000000" d="M500,286.66666666666663L500,300L520,286.66666666666663L500,286.66666666666663Z" /></g><g stroke-width="1" stroke="#808080" fill="#f0f0f0"><path d="M360,320L360,360L500,360L520,346.6666666666667L520,320L360,320Z" /><path stroke-linejoin="round" fill-opacity="0.125" fill="#000000" d="M500,346.6666666666667L500,360L520,346.6666666666667L500,346.6666666666667Z" /></g><text fill="#101010" font-size="16" font-family="sans-serif" text-anchor="middle" y="275" x="440">DataSet</text><text y="295" fill="#101010" font-size="16" font-family="sans-serif" text-anchor="middle" x="440">MET Station</text><text fill="#101010" font-size="16" font-family="sans-serif" text-anchor="middle" y="335" x="440">MET Station</text><text fill="#101010" font-size="16" font-family="sans-serif" text-anchor="middle" y="355" x="440">Macrotasks (Op)</text><rect fill="#f8f8f8" stroke="#101010" stroke-width="2" height="40" width="140" y="380" x="140" /><rect fill="#f8f8f8" stroke="#101010" stroke-width="2" height="40" width="140" y="440" x="140" /><text fill="#101010" font-size="16" font-family="sans-serif" text-anchor="middle" y="400" x="210">Data</text><text fill="#101010" font-size="16" font-family="sans-serif" text-anchor="middle" y="460" x="210">Operations</text><g stroke-width="1" stroke="#808080" fill="#f0f0f0"><path d="M360,380L360,520L500,520L520,473.33333333333326L520,380L360,380Z" /><path stroke-linejoin="round" fill-opacity="0.125" fill="#000000" d="M500,473.33333333333326L500,520L520,473.33333333333326L500,473.33333333333326Z" /></g><text fill="#101010" font-size="16" font-family="sans-serif" text-anchor="middle" y="400" x="440">Normalization</text><text fill="#101010" font-size="16" font-family="sans-serif" text-anchor="middle" y="420" x="440">Cleaning</text><text fill="#101010" font-size="16" font-family="sans-serif" text-anchor="middle" y="440" x="440">Transformation</text><text fill="#101010" font-size="16" font-family="sans-serif" text-anchor="middle" y="460" x="440">Reduction</text><text fill="#101010" font-size="16" font-family="sans-serif" text-anchor="middle" y="480" x="440">Behavior (Ss, Cy)</text><text fill="#101010" font-size="16" font-family="sans-serif" text-anchor="middle" y="500" x="440">Raw</text><path fill="none" stroke="#101010" stroke-width="2" d="M120,240L120,260L120,280L140,280" /><path fill="none" stroke="#101010" stroke-width="2" d="M120,280L120,300L120,320L120,340L140,340" /><path fill="none" stroke="#101010" stroke-width="2" d="M120,340L120,360L120,380L120,400L140,400" /><path fill="none" stroke="#101010" stroke-width="2" d="M120,400L120,420L120,440L120,460L140,460" /><path stroke-dasharray="2" stroke-width="1" fill="none" stroke="#101010" d="M280,280L300,280L320,280L340,280L360,280" /><path stroke-dasharray="2" stroke-width="1" fill="none" stroke="#101010" d="M280,340L300,340L320,340L340,340L360,340" /><path stroke-dasharray="2" stroke-width="1" fill="none" stroke="#101010" d="M280,460L320,460L360,460" /><path stroke-dasharray="4" marker-end="url(#edraw-def-0-arrow)" d="M280,360C300,360 300,400 300,400C300,400 300,440 280,440" fill="none" stroke="#101010" stroke-width="2" /><text fill="#101010" font-size="16" font-family="sans-serif" text-anchor="middle" y="400" x="320">Op</text><path marker-end="url(#edraw-def-5-arrow)" fill="none" stroke="#101010" stroke-width="2" d="M140 160L120 160L120 140L120 120" /><path fill="none" stroke="#101010" stroke-width="2" d="M40 100L40 120L40 140L40 160L40 180L40 200L40 220L60 220L80 220L100 220" /><rect fill="#f8f8f8" stroke="#101010" stroke-width="2" height="40" width="120" y="560" x="100" /><text fill="#101010" font-size="16" font-family="sans-serif" text-anchor="middle" y="580" x="160">Mainredo</text><rect stroke-width="2" stroke="#101010" fill="#f8f8f8" height="40" width="140" y="500" x="140" /><text fill="#101010" font-size="16" font-family="sans-serif" text-anchor="middle" y="520" x="210">GenRedo</text><path fill="none" stroke="#101010" stroke-width="2" d="M40,220L40,240L40,260L40,280L40,300L40,320L40,340L40,360L40,380L40,400L40,420L40,440L40,460L40,480L40,500L40,580L60,580L80,580L100,580" /><text fill="#101010" font-size="16" font-family="sans-serif" text-anchor="middle" y="540" x="70">call</text><text fill="#101010" font-size="16" font-family="sans-serif" text-anchor="middle" y="260" x="70">result</text><path marker-end="url(#edraw-def-3-arrow)" marker-start="url(#edraw-def-4-arrow)" d="M100,240C60,400 100,560 100,560" fill="none" stroke="#999" stroke-width="2" /><g stroke-width="1" stroke="#808080" fill="#f0f0f0"><path d="M300,200L300,240L440,240L460,226.66666666666669L460,200L300,200Z" /><path stroke-linejoin="round" fill-opacity="0.125" fill="#000000" d="M440,226.66666666666669L440,240L460,226.66666666666669L440,226.66666666666669Z" /></g><text fill="#101010" font-size="16" font-family="sans-serif" text-anchor="middle" y="215" x="380">I/O Request</text><path stroke-dasharray="2" stroke-width="1" fill="none" stroke="#101010" d="M220 220L240 220L260 220L280 220L300 220" /><g stroke-width="1" stroke="#808080" fill="#f0f0f0"><path d="M300,540L300,600L457.5,600L480,580L480,540L300,540Z" /><path stroke-linejoin="round" fill-opacity="0.125" fill="#000000" d="M457.5,580L457.5,600L480,580L457.5,580Z" /></g><text fill="#101010" font-size="16" font-family="sans-serif" text-anchor="middle" y="560" x="400"><tspan class="edraw-text-line" x="400">Transformations\\</tspan><tspan class="edraw-text-line" x="400" dy="1em">handler Class</tspan></text><path marker-end="url(#edraw-def-5-arrow)" fill="none" stroke="#101010" stroke-width="2" d="M140 520L120 520L120 540L120 560" /><path stroke-dasharray="2" stroke-width="1" fill="none" stroke="#101010" d="M220 580L240 580L260 580L280 580L300 580" /><text fill="#101010" font-size="16" font-family="sans-serif" text-anchor="middle" y="235" x="380">Modules</text><text fill="#101010" font-size="16" font-family="sans-serif" text-anchor="middle" y="360" x="320">Tests</text><text fill="#101010" font-size="16" font-family="sans-serif" text-anchor="middle" y="440" x="320">Applied</text></g></svg>