<svg xmlns="http://www.w3.org/2000/svg" xmlns:xlink="http://www.w3.org/1999/xlink" width="700" height="780" version="1.1"><defs id="edraw-defs"><marker id="edraw-def-0-arrow" markerWidth="6" markerHeight="6" preserveAspectRatio="none" viewBox="-10 -10 20 20" refX="0" refY="0" orient="auto" stroke="none" fill="#101010"><path d="M-10,-7 -10,7 4,0Z" /></marker><marker id="edraw-def-1-arrow" markerWidth="6" markerHeight="6" preserveAspectRatio="none" viewBox="-10 -10 20 20" refX="8" refY="0" orient="auto" stroke="none" fill="#101010"><path d="M-10,-7 -10,7 4,0Z" /></marker></defs><rect x="0" y="0" width="700" height="780" id="edraw-background" stroke="none" fill="#fff" /><g id="edraw-body"><rect fill="#f8f8f8" stroke="#101010" stroke-width="2" height="40" width="100" y="20" x="160" /><text y="35" fill="#101010" font-size="16" font-family="sans-serif" text-anchor="middle" x="210"><tspan class="edraw-text-line" x="210">Backend\\</tspan><tspan class="edraw-text-line" x="210" dy="1em">Route</tspan></text><rect fill="#f8f8f8" stroke="#101010" stroke-width="2" height="40" width="100" y="20" x="300" /><text fill="#101010" font-size="16" font-family="sans-serif" text-anchor="middle" y="40" x="350">GenLoader</text><path d="M100,220" fill="none" stroke="#101010" stroke-width="2" /><path d="" fill="none" stroke="#101010" stroke-width="2" /><path d="M360,180" fill="none" stroke="#101010" stroke-width="2" /><rect fill="#f8f8f8" stroke="#101010" stroke-width="2" height="40" width="100" y="20" x="440" /><text fill="#101010" font-size="16" font-family="sans-serif" text-anchor="middle" y="40" x="490">Operations</text><rect stroke-width="2" stroke="#101010" fill="#f8f8f8" height="40" width="100" y="20" x="580" /><text fill="#101010" font-size="16" font-family="sans-serif" text-anchor="middle" y="40" x="630">GenRedo</text><rect fill="#f8f8f8" stroke="#101010" stroke-width="2" height="40" width="100" y="20" x="20" /><text fill="#101010" font-size="16" font-family="sans-serif" text-anchor="middle" y="40" x="60">Frontend</text><path stroke-dasharray="3" d="M70,60L70,760" fill="none" stroke="#101010" stroke-width="2" /><path stroke-dasharray="3" d="M210,60L210,760" fill="none" stroke="#101010" stroke-width="2" /><path stroke-dasharray="3" d="M350,60L350,760" fill="none" stroke="#101010" stroke-width="2" /><path stroke-dasharray="3" d="M630,60L630,760" fill="none" stroke="#101010" stroke-width="2" /><text fill="#101010" font-size="16" font-family="sans-serif" text-anchor="start" y="90" x="80">read meta data</text><text fill="#101010" font-size="16" font-family="sans-serif" text-anchor="start" y="100" x="220">get meta data</text><text fill="#101010" font-size="16" font-family="sans-serif" text-anchor="end" y="130" x="340">meta data set</text><text fill="#101010" font-size="16" font-family="sans-serif" text-anchor="end" y="160" x="340">station meta data</text><text fill="#101010" font-size="16" font-family="sans-serif" text-anchor="start" y="200" x="80">selected station</text><text fill="#101010" font-size="16" font-family="sans-serif" text-anchor="start" y="210" x="220">get station</text><text fill="#101010" font-size="16" font-family="sans-serif" text-anchor="end" y="240" x="340">station data</text><path stroke-dasharray="3" d="M490,60L490,760" fill="none" stroke="#101010" stroke-width="2" /><text fill="#101010" font-size="16" font-family="sans-serif" text-anchor="start" y="270" x="220">get recommend</text><text fill="#101010" font-size="16" font-family="sans-serif" text-anchor="end" y="300" x="480">recommendations</text><text fill="#101010" font-size="16" font-family="sans-serif" text-anchor="start" y="440" x="220">Normalize Op</text><text fill="#101010" font-size="16" font-family="sans-serif" text-anchor="start" y="370" x="500">method</text><text fill="#101010" font-size="16" font-family="sans-serif" text-anchor="end" y="480" x="620">Normalized data</text><text fill="#101010" font-size="16" font-family="sans-serif" text-anchor="start" y="450" x="500">method</text><text fill="#101010" font-size="16" font-family="sans-serif" text-anchor="end" y="400" x="620">clean data</text><text fill="#101010" font-size="16" font-family="sans-serif" text-anchor="start" y="360" x="220">Clean Op</text><text fill="#101010" font-size="16" font-family="sans-serif" text-anchor="start" y="520" x="220">Transform Op</text><text fill="#101010" font-size="16" font-family="sans-serif" text-anchor="start" y="530" x="500">method</text><text fill="#101010" font-size="16" font-family="sans-serif" text-anchor="end" y="560" x="620">Transformed data</text><path marker-end="url(#edraw-def-1-arrow)" d="M70,100L210,100" fill="none" stroke="#101010" stroke-width="2" /><path marker-end="url(#edraw-def-1-arrow)" d="M210,110L350,110" fill="none" stroke="#101010" stroke-width="2" /><path marker-end="url(#edraw-def-1-arrow)" d="M350,140L210,140" fill="none" stroke="#101010" stroke-width="2" /><path marker-end="url(#edraw-def-1-arrow)" d="M350,170L210,170" fill="none" stroke="#101010" stroke-width="2" /><path stroke-width="2" marker-end="url(#edraw-def-0-arrow)" d="M210,180L70,180" fill="none" stroke="#101010" /><path marker-end="url(#edraw-def-1-arrow)" d="M70,210L210,210" fill="none" stroke="#101010" stroke-width="2" /><path marker-end="url(#edraw-def-1-arrow)" d="M210,220L350,220" fill="none" stroke="#101010" stroke-width="2" /><path marker-end="url(#edraw-def-1-arrow)" d="M350,250L210,250" fill="none" stroke="#101010" stroke-width="2" /><path marker-end="url(#edraw-def-1-arrow)" d="M210,280L490,280" fill="none" stroke="#101010" stroke-width="2" /><path marker-end="url(#edraw-def-1-arrow)" d="M490,310C490,310 210,310 210,310" fill="none" stroke="#101010" stroke-width="2" /><path marker-end="url(#edraw-def-1-arrow)" d="M210,370C210,370 490,370 490,370" fill="none" stroke="#101010" stroke-width="2" /><path marker-end="url(#edraw-def-1-arrow)" d="M490,380L630,380" fill="none" stroke="#101010" stroke-width="2" /><path marker-end="url(#edraw-def-1-arrow)" d="M630,410L210,410" fill="none" stroke="#101010" stroke-width="2" /><path marker-end="url(#edraw-def-1-arrow)" d="M210,450L490,450" fill="none" stroke="#101010" stroke-width="2" /><path marker-end="url(#edraw-def-1-arrow)" d="M490,460L630,460" fill="none" stroke="#101010" stroke-width="2" /><path marker-end="url(#edraw-def-1-arrow)" d="M630,490L210,490" fill="none" stroke="#101010" stroke-width="2" /><path marker-end="url(#edraw-def-1-arrow)" d="M210,530L490,530" fill="none" stroke="#101010" stroke-width="2" /><path marker-end="url(#edraw-def-1-arrow)" d="M490,540L630,540" fill="none" stroke="#101010" stroke-width="2" /><path marker-end="url(#edraw-def-1-arrow)" d="M630,570L210,570" fill="none" stroke="#101010" stroke-width="2" /><path marker-end="url(#edraw-def-1-arrow)" d="M70,350C70,350 210,350 210,350" fill="none" stroke="#101010" stroke-width="2" /><text fill="#101010" font-size="16" font-family="sans-serif" text-anchor="start" y="340" x="80">selected Op</text><path marker-end="url(#edraw-def-0-arrow)" d="M210,320L70,320" fill="none" stroke="#101010" stroke-width="2" /><text fill="#101010" font-size="16" font-family="sans-serif" text-anchor="end" y="170" x="200">dataset, station</text><text fill="#101010" font-size="16" font-family="sans-serif" text-anchor="end" y="310" x="200">station, recom</text><text fill="#101010" font-size="16" font-family="sans-serif" text-anchor="start" y="600" x="220">Reduction Op</text><path marker-end="url(#edraw-def-1-arrow)" d="M210,610L490,610" fill="none" stroke="#101010" stroke-width="2" /><text fill="#101010" font-size="16" font-family="sans-serif" text-anchor="start" y="610" x="500">method</text><path marker-end="url(#edraw-def-1-arrow)" d="M490,620L630,620" fill="none" stroke="#101010" stroke-width="2" /><text fill="#101010" font-size="16" font-family="sans-serif" text-anchor="end" y="640" x="620">Reduced data</text><path marker-end="url(#edraw-def-1-arrow)" d="M630,650L210,650" fill="none" stroke="#101010" stroke-width="2" /><text fill="#101010" font-size="16" font-family="sans-serif" text-anchor="end" y="650" x="200">processed data</text><path marker-end="url(#edraw-def-0-arrow)" d="M210,660L70,660" fill="none" stroke="#101010" stroke-width="2" /><text fill="#101010" font-size="16" font-family="sans-serif" text-anchor="start" y="680" x="80">get behavior</text><path marker-end="url(#edraw-def-1-arrow)" d="M70,690C70,690 210,690 210,690" fill="none" stroke="#101010" stroke-width="2" /><text fill="#101010" font-size="16" font-family="sans-serif" text-anchor="start" y="690" x="220">check behavior</text><path marker-end="url(#edraw-def-1-arrow)" d="M210,700L490,700" fill="none" stroke="#101010" stroke-width="2" /><text fill="#101010" font-size="16" font-family="sans-serif" text-anchor="start" y="700" x="500">method</text><path marker-end="url(#edraw-def-1-arrow)" d="M490,710L630,710" fill="none" stroke="#101010" stroke-width="2" /><text fill="#101010" font-size="16" font-family="sans-serif" text-anchor="end" y="730" x="620">behavior</text><path marker-end="url(#edraw-def-1-arrow)" d="M630,740L210,740" fill="none" stroke="#101010" stroke-width="2" /><text fill="#101010" font-size="16" font-family="sans-serif" text-anchor="end" y="740" x="200">data behavior</text><path marker-end="url(#edraw-def-0-arrow)" d="M210,750L70,750" fill="none" stroke="#101010" stroke-width="2" /><path d="M210,100" fill="none" stroke="#101010" stroke-width="2" /><path d="M210,100" fill="none" stroke="#101010" stroke-width="2" /><path stroke="#999" stroke-width="8" d="M210,100L210,180" fill="none" /><path stroke-width="8" d="M350,110L350,170" fill="none" stroke="#999" /><path stroke-width="8" d="M210,210L210,320" fill="none" stroke="#999" /><path stroke-width="8" d="M350,220L350,250" fill="none" stroke="#999" /><path stroke-width="8" d="M490,280L490,310" fill="none" stroke="#999" /><path stroke-width="8" d="M210,350L210,660" fill="none" stroke="#999" /><path stroke-width="8" d="M630,380L630,410" fill="none" stroke="#999" /><path stroke-width="8" d="M630,460L630,490" fill="none" stroke="#999" /><path stroke-width="8" d="M630,540L630,570" fill="none" stroke="#999" /><path stroke-width="8" d="M630,620L630,650" fill="none" stroke="#999" /><path stroke-width="8" d="M630,710L630,740" fill="none" stroke="#999" /><path stroke-width="8" d="M210,690L210,750" fill="none" stroke="#999" /><path stroke-width="8" d="M490,370L490,380" fill="none" stroke="#999" /><path stroke-width="8" d="M490,450L490,460" fill="none" stroke="#999" /><path stroke-width="8" d="M490,530L490,540" fill="none" stroke="#999" /><path stroke-width="8" d="M490,610L490,620" fill="none" stroke="#999" /><path stroke-width="8" d="M490,700L490,710" fill="none" stroke="#999" /></g></svg>