<svg xmlns="http://www.w3.org/2000/svg" xmlns:xlink="http://www.w3.org/1999/xlink" width="560" height="200" version="1.1"><rect x="0" y="0" width="560" height="200" id="edraw-background" stroke="none" fill="#fff" /><g id="edraw-body"><rect fill="#f8f8f8" stroke="#101010" stroke-width="2" height="80" width="120" y="80" x="40" /><rect fill="#f8f8f8" stroke="#101010" stroke-width="2" height="80" width="120" y="80" x="200" /><ellipse fill="#f8f8f8" stroke="#101010" stroke-width="2" ry="20" rx="60" cy="80" cx="420" /><ellipse fill="#f8f8f8" stroke="#101010" stroke-width="2" ry="20" rx="60" cy="160" cx="420" /><path fill="none" stroke="#101010" stroke-width="2" d="M360,80L360,100L360,120L360,140L360,160" /><path fill="none" stroke="#101010" stroke-width="2" d="M480,80L480,100L480,120L480,140L480,160" /><text fill="#101010" font-size="16" font-family="sans-serif" text-anchor="middle" y="120" x="100">Vue.JS</text><text fill="#101010" font-size="16" font-family="sans-serif" text-anchor="middle" y="120" x="260">Python</text><text fill="#101010" font-size="16" font-family="sans-serif" text-anchor="middle" y="120" x="420">CSV</text><path fill="none" stroke="#101010" stroke-width="2" d="M160,120L180,120L200,120" /><path fill="none" stroke="#101010" stroke-width="2" d="M320,120L340,120L360,120" /><text fill="#101010" font-size="16" font-family="sans-serif" text-anchor="middle" y="20" x="100">Layer 1</text><text fill="#101010" font-size="16" font-family="sans-serif" text-anchor="middle" y="20" x="260">Layer 2</text><text fill="#101010" font-size="16" font-family="sans-serif" text-anchor="middle" y="20" x="420">Layer 3</text><text fill="#101010" font-size="16" font-family="sans-serif" text-anchor="middle" y="40" x="100">Frontend</text><text fill="#101010" font-size="16" font-family="sans-serif" text-anchor="middle" y="40" x="260">Backend</text><text fill="#101010" font-size="16" font-family="sans-serif" text-anchor="middle" y="40" x="420">Datasource</text></g></svg>