<svg xmlns="http://www.w3.org/2000/svg" xmlns:xlink="http://www.w3.org/1999/xlink" width="640" height="920" version="1.1"><defs id="edraw-defs"><marker id="edraw-def-0-arrow" markerWidth="6" markerHeight="6" preserveAspectRatio="none" viewBox="-10 -10 20 20" refX="0" refY="0" orient="auto" stroke="none" fill="#101010"><path d="M-10,-7 -10,7 4,0Z" /></marker><marker id="edraw-def-1-arrow" markerWidth="6" markerHeight="6" preserveAspectRatio="none" viewBox="-10 -10 20 20" refX="0" refY="0" orient="auto" stroke="none" fill="#101010"><path d="M10,-7 10,7 -4,0Z" /></marker></defs><rect x="0" y="0" width="640" height="920" id="edraw-background" stroke="none" fill="#fff" /><g id="edraw-body"><rect fill="#f8f8f8" stroke="#101010" stroke-width="2" height="40" width="120" y="20" x="20" /><rect fill="#f8f8f8" stroke="#101010" stroke-width="2" height="40" width="120" y="80" x="60" /><rect fill="#f8f8f8" stroke="#101010" stroke-width="2" height="40" width="120" y="140" x="60" /><rect fill="#f8f8f8" stroke="#101010" stroke-width="2" height="40" width="120" y="740" x="60" /><text fill="#101010" font-size="16" font-family="sans-serif" text-anchor="middle" y="40" x="80">main.js</text><text fill="#101010" font-size="16" font-family="sans-serif" text-anchor="middle" y="100" x="120">App.vue</text><text fill="#101010" font-size="16" font-family="sans-serif" text-anchor="middle" y="160" x="120">router</text><text fill="#101010" font-size="16" font-family="sans-serif" text-anchor="middle" y="760" x="120">store</text><rect fill="#f8f8f8" stroke="#101010" stroke-width="2" height="40" width="120" y="800" x="60" /><rect fill="#f8f8f8" stroke="#101010" stroke-width="2" height="40" width="120" y="860" x="60" /><text fill="#101010" font-size="16" font-family="sans-serif" text-anchor="middle" y="820" x="120">vuetify</text><text fill="#101010" font-size="16" font-family="sans-serif" text-anchor="middle" y="880" x="120">notifier</text><rect fill="#f8f8f8" stroke="#101010" stroke-width="2" height="40" width="160" y="300" x="140" /><rect fill="#f8f8f8" stroke="#101010" stroke-width="2" height="40" width="160" y="680" x="100" /><text fill="#101010" font-size="16" font-family="sans-serif" text-anchor="middle" y="320" x="220">TimeSeries.vue</text><text fill="#101010" font-size="16" font-family="sans-serif" text-anchor="middle" y="700" x="180">MetaData.vue</text><rect fill="#f8f8f8" stroke="#101010" stroke-width="2" height="40" width="160" y="360" x="180" /><rect fill="#f8f8f8" stroke="#101010" stroke-width="2" height="40" width="200" y="500" x="180" /><text fill="#101010" font-size="16" font-family="sans-serif" text-anchor="middle" y="380" x="250">Diagram.vue</text><text fill="#101010" font-size="16" font-family="sans-serif" text-anchor="middle" y="520" x="280">OperatorDiagram.vue</text><path fill="none" stroke="#101010" stroke-width="2" d="M40,60L40,360L40,380L40,400L40,420L40,440L40,460L40,460L40,480L40,500L40,500L40,520L40,580L40,600L40,620L40,660L40,680L40,700L40,720L40,740L40,760L40,780L40,840L40,840L40,880L40,860" /><path fill="none" stroke="#101010" stroke-width="2" d="M40,880L60,880" /><path fill="none" stroke="#101010" stroke-width="2" d="M40,820L60,820" /><path fill="none" stroke="#101010" stroke-width="2" d="M40,760L60,760" /><path fill="none" stroke="#101010" stroke-width="2" d="M40,100L60,100" /><path fill="none" stroke="#101010" stroke-width="2" d="M40,160L60,160" /><path fill="none" stroke="#101010" stroke-width="2" d="M80,180L80,360L80,380L80,400L80,420L80,440L80,460L80,480L80,500L80,520L80,540L80,700L100,700" /><path fill="none" stroke="#101010" stroke-width="2" d="M160,340L160,420L160,440L160,460L160,480L160,520L180,520" /><path fill="none" stroke="#101010" stroke-width="2" d="M160,380L180,380" /><g stroke-width="1" stroke="#808080" fill="#f0f0f0"><path d="M240,80L240,120L380,120L400,106.66666666666667L400,80L240,80Z" /><path stroke-linejoin="round" fill-opacity="0.125" fill="#000000" d="M380,106.66666666666667L380,120L400,106.66666666666667L380,106.66666666666667Z" /></g><text fill="#101010" font-size="16" font-family="sans-serif" text-anchor="middle" y="100" x="320">Toolbar, Themes</text><path stroke-dasharray="2" stroke-width="1" fill="none" stroke="#101010" d="M180,100L200,100L220,100L220,100L240,100" /><rect fill="#f8f8f8" stroke="#101010" stroke-width="2" height="40" width="160" y="200" x="100" /><rect fill="#f8f8f8" stroke="#101010" stroke-width="2" height="40" width="160" y="620" x="100" /><path fill="none" stroke="#101010" stroke-width="2" d="M80,220L100,220" /><path fill="none" stroke="#101010" stroke-width="2" d="M80,640L100,640" /><text fill="#101010" font-size="16" font-family="sans-serif" text-anchor="middle" y="220" x="180">Home.vue</text><text fill="#101010" font-size="16" font-family="sans-serif" text-anchor="middle" y="640" x="180">Spiral.vue</text><g stroke-width="1" stroke="#808080" fill="#f0f0f0"><path d="M320,200L320,240L442.5,240L460,226.66666666666669L460,200L320,200Z" /><path stroke-linejoin="round" fill-opacity="0.125" fill="#000000" d="M442.5,226.66666666666669L442.5,240L460,226.66666666666669L442.5,226.66666666666669Z" /></g><text fill="#101010" font-size="16" font-family="sans-serif" text-anchor="middle" y="220" x="380">Data selector</text><path stroke-dasharray="2" stroke-width="1" fill="none" stroke="#101010" d="M260,220L280,220L300,220L320,220" /><g stroke-width="1" stroke="#808080" fill="#f0f0f0"><path d="M400,620L400,740L575,740L600,700.0000000000002L600,620L400,620Z" /><path stroke-linejoin="round" fill-opacity="0.125" fill="#000000" d="M575,700.0000000000002L575,740L600,700.0000000000002L575,700.0000000000002Z" /></g><text fill="#101010" font-size="16" font-family="sans-serif" text-anchor="middle" y="635" x="500">Temp Fixed</text><path stroke-dasharray="2" stroke-width="1" fill="none" stroke="#101010" d="M260,640L280,640L300,640L300,640L400,640" /><path stroke-dasharray="4" marker-end="url(#edraw-def-0-arrow)" d="M260,240C280,260 280,300 280,300" fill="none" stroke="#101010" stroke-width="2" /><text fill="#101010" font-size="16" font-family="sans-serif" text-anchor="middle" y="280" x="240">Selector</text><path fill="none" stroke="#101010" stroke-width="2" d="M120,240L120,300L120,320L140,320" /><g stroke-width="1" stroke="#808080" fill="#f0f0f0"><path d="M360,280L360,480L552.5,480L580,413.3333333333334L580,280L360,280Z" /><path stroke-linejoin="round" fill-opacity="0.125" fill="#000000" d="M552.5,413.3333333333334L552.5,480L580,413.3333333333334L552.5,413.3333333333334Z" /></g><text fill="#101010" font-size="16" font-family="sans-serif" text-anchor="middle" y="300" x="460">Get dat. Chart rend.</text><path stroke-dasharray="2" stroke-width="1" fill="none" stroke="#101010" d="M300,320L320,320L340,320L360,320L360,320" /><rect fill="#f8f8f8" stroke="#101010" stroke-width="2" height="40" width="160" y="560" x="140" /><path fill="none" stroke="#101010" stroke-width="2" d="M120,620L120,600L120,580L140,580" /><text fill="#101010" font-size="16" font-family="sans-serif" text-anchor="middle" y="580" x="220">point-spiral.js</text><path stroke-dasharray="4" marker-start="url(#edraw-def-1-arrow)" d="M140,560C120,460 140,340 140,340" fill="none" stroke="#101010" stroke-width="2" /><g stroke-width="1" stroke="#808080" fill="#f0f0f0"><path d="M360,560L360,600L465,600L480,586.6666666666667L480,560L360,560Z" /><path stroke-linejoin="round" fill-opacity="0.125" fill="#000000" d="M465,586.6666666666667L465,600L480,586.6666666666667L465,586.6666666666667Z" /></g><text fill="#101010" font-size="16" font-family="sans-serif" text-anchor="middle" y="580" x="420">spiral.js</text><path stroke-dasharray="2" stroke-width="1" fill="none" stroke="#101010" d="M300,580L320,580L340,580L340,580L360,580" /><text fill="#101010" font-size="16" font-family="sans-serif" text-anchor="middle" y="360" x="110">Spiral</text><g stroke-width="1" stroke="#808080" fill="#f0f0f0"><path d="M200,420L200,460L305,460L320,446.6666666666667L320,420L200,420Z" /><path stroke-linejoin="round" fill-opacity="0.125" fill="#000000" d="M305,446.6666666666667L305,460L320,446.6666666666667L305,446.6666666666667Z" /></g><text fill="#101010" font-size="16" font-family="sans-serif" text-anchor="middle" y="440" x="260">Tasks flow</text><g stroke-width="1" stroke="#808080" fill="#f0f0f0"><path d="M440,500L440,540L562.5,540L580,526.6666666666667L580,500L440,500Z" /><path stroke-linejoin="round" fill-opacity="0.125" fill="#000000" d="M562.5,526.6666666666667L562.5,540L580,526.6666666666667L562.5,526.6666666666667Z" /></g><text fill="#101010" font-size="16" font-family="sans-serif" text-anchor="middle" y="520" x="510">Subtasks stages</text><path stroke-width="1" stroke-dasharray="2" fill="none" stroke="#101010" d="M380,520L400,520L420,520L440,520" /><g stroke-width="1" stroke="#808080" fill="#f0f0f0"><path d="M200,840L200,880L322.5,880L340,866.6666666666667L340,840L200,840Z" /><path stroke-linejoin="round" fill-opacity="0.125" fill="#000000" d="M322.5,866.6666666666667L322.5,880L340,866.6666666666667L322.5,866.6666666666667Z" /></g><text fill="#101010" font-size="16" font-family="sans-serif" text-anchor="middle" y="860" x="270">Subtree selector</text><path stroke-width="1" stroke-dasharray="2" fill="none" stroke="#101010" d="M220,720L220,760L220,780L220,800L220,840" /><rect fill="#f8f8f8" stroke="#101010" stroke-width="2" height="60" width="100" y="780" x="420" /><text fill="#101010" font-size="16" font-family="sans-serif" text-anchor="middle" y="820" x="470">Backend</text><path marker-end="url(#edraw-def-0-arrow)" stroke-dasharray="4" d="M240,720C280,840 420,820 420,820" fill="none" stroke="#101010" stroke-width="2" /><path marker-end="url(#edraw-def-0-arrow)" stroke-dasharray="4" d="M300,300C300,240 573.9231903791894,221.7695711375682 600,300C640,420 634.0587727318529,657.8236818044415 600,760C580,820 520,820 520,820" fill="none" stroke="#101010" stroke-width="2" /><text fill="#101010" font-size="16" font-family="sans-serif" text-anchor="middle" y="320" x="460">Beautifiers: tippy</text><text fill="#101010" font-size="16" font-family="sans-serif" text-anchor="middle" y="340" x="460">viscovery (guideline),</text><text fill="#101010" font-size="16" font-family="sans-serif" text-anchor="middle" y="360" x="460">Leader line (G.Objs).</text><text fill="#101010" font-size="16" font-family="sans-serif" text-anchor="middle" y="380" x="460">Recommendations,</text><text fill="#101010" font-size="16" font-family="sans-serif" text-anchor="middle" y="400" x="460">Range. Macrotasks:</text><text fill="#101010" font-size="16" font-family="sans-serif" text-anchor="middle" y="420" x="460">Transform: Decomp</text><text fill="#101010" font-size="16" font-family="sans-serif" text-anchor="middle" y="440" x="460">(Ss,Cy,T), Reduction,</text><text fill="#101010" font-size="16" font-family="sans-serif" text-anchor="middle" y="460" x="460">Norm. Cleaning.</text><text fill="#101010" font-size="16" font-family="sans-serif" text-anchor="middle" y="655" x="500">Tooltips, Controls</text><text fill="#101010" font-size="16" font-family="sans-serif" text-anchor="middle" y="675" x="500">Compute coords</text><text fill="#101010" font-size="16" font-family="sans-serif" text-anchor="middle" y="695" x="500">Get period from BE</text><text fill="#101010" font-size="16" font-family="sans-serif" text-anchor="middle" y="715" x="500">Obj rendering</text><text fill="#101010" font-size="16" font-family="sans-serif" text-anchor="middle" y="735" x="500">Obj details</text><path stroke-width="1" stroke-dasharray="2" fill="none" stroke="#101010" d="M260,400L260,420" /><text fill="#101010" font-size="16" font-family="sans-serif" text-anchor="middle" y="800" x="470">new api</text><path marker-end="url(#edraw-def-0-arrow)" stroke-dasharray="4" d="M260,660C320,820 420,800 420,800" fill="none" stroke="#101010" stroke-width="2" /></g></svg>